<?xml version="1.0" standalone="no"?>
<!DOCTYPE svg PUBLIC "-//W3C//DTD SVG 20010904//EN"
 "http://www.w3.org/TR/2001/REC-SVG-20010904/DTD/svg10.dtd">
<svg version="1.0" xmlns="http://www.w3.org/2000/svg"
 width="96.000000pt" height="96.000000pt" viewBox="0 0 96.000000 96.000000"
 preserveAspectRatio="xMidYMid meet">

<g transform="translate(0.000000,96.000000) scale(0.100000,-0.100000)"
fill="#000000" stroke="none">
<path d="M0 483 l0 -478 220 220 c121 121 220 223 220 227 0 5 -56 8 -125 8
l-126 0 3 138 3 137 269 2 270 2 110 111 111 110 -478 0 -477 0 0 -477z"/>
<path d="M521 178 l-163 -173 162 -3 c90 -1 165 -1 167 1 2 2 2 82 1 176 l-3
172 -164 -173z"/>
</g>
</svg>
